<?xml version="1.0" standalone="no"?>
<!DOCTYPE svg PUBLIC "-//W3C//DTD SVG 20010904//EN"
 "http://www.w3.org/TR/2001/REC-SVG-20010904/DTD/svg10.dtd">
<svg version="1.0" xmlns="http://www.w3.org/2000/svg"
 width="994.000000pt" height="1200.000000pt" viewBox="0 0 994.000000 1200.000000"
 preserveAspectRatio="xMidYMid meet">

<g transform="translate(0.000000,1200.000000) scale(0.100000,-0.100000)"
fill="#000000" stroke="none">
<path d="M5561 11989 c-1350 -86 -2569 -837 -3274 -2019 -236 -396 -416 -880
-501 -1350 -47 -258 -60 -406 -60 -705 -1 -439 8 -554 69 -860 164 -823 561
-1550 1171 -2145 452 -441 984 -765 1577 -959 648 -213 1347 -261 2017 -141
528 96 1067 312 1510 607 219 145 459 343 655 538 493 491 857 1105 1050 1770
215 743 215 1557 1 2297 -539 1859 -2287 3090 -4215 2967z"/>
</g>
</svg>
